HIERARCHY
ROOT Hips
{
	OFFSET 0.000000 0.000000 0.000000
	CHANNELS 6 Xposition Yposition Zposition Zrotation Yrotation Xrotation
	JOINT LHipJoint
	{
		OFFSET 0.000000 0.000000 0.000000
		CHANNELS 3 Zrotation Yrotation Xrotation
		JOINT LeftUpLeg
		{
			OFFSET 0.076937 -0.101296 0.047373
			CHANNELS 3 Zrotation Yrotation Xrotation
			JOINT LeftLeg
			{
				OFFSET 0.138181 -0.379650 0.000000
				CHANNELS 3 Zrotation Yrotation Xrotation
				JOINT LeftFoot
				{
					OFFSET 0.144621 -0.397343 0.000000
					CHANNELS 3 Zrotation Yrotation Xrotation
					JOINT LeftToeBase
					{
						OFFSET 0.008898 -0.024446 0.131094
						CHANNELS 3 Zrotation Yrotation Xrotation
						End Site
						{
							OFFSET 0.000000 0.000000 0.000000
						}
					}
				}
			}
		}
	}
	JOINT RHipJoint
	{
		OFFSET 0.000000 0.000000 0.000000
		CHANNELS 3 Zrotation Yrotation Xrotation
		JOINT RightUpLeg
		{
			OFFSET -0.073689 -0.101296 0.047373
			CHANNELS 3 Zrotation Yrotation Xrotation
			JOINT RightLeg
			{
				OFFSET -0.143511 -0.394292 0.000000
				CHANNELS 3 Zrotation Yrotation Xrotation
				JOINT RightFoot
				{
					OFFSET -0.144963 -0.398282 0.000000
					CHANNELS 3 Zrotation Yrotation Xrotation
					JOINT RightToeBase
					{
						OFFSET -0.009298 -0.025546 0.133386
						CHANNELS 3 Zrotation Yrotation Xrotation
						End Site
						{
							OFFSET 0.000000 0.000000 0.000000
						}
					}
				}
			}
		}
	}
	JOINT LowerBack
	{
		OFFSET 0.000000 0.000000 0.000000
		CHANNELS 3 Zrotation Yrotation Xrotation
		JOINT Spine
		{
			OFFSET 0.001596 0.114897 -0.010915
			CHANNELS 3 Zrotation Yrotation Xrotation
			JOINT Spine1
			{
				OFFSET 0.003201 0.115645 -0.002413
				CHANNELS 3 Zrotation Yrotation Xrotation
				JOINT Neck
				{
					OFFSET 0.000000 0.000000 0.000000
					CHANNELS 3 Zrotation Yrotation Xrotation
					JOINT Neck1
					{
						OFFSET -0.003058 0.098565 0.009709
						CHANNELS 3 Zrotation Yrotation Xrotation
						JOINT Head
						{
							OFFSET 0.005874 0.099418 -0.006997
							CHANNELS 3 Zrotation Yrotation Xrotation
							End Site
							{
								OFFSET 0.000000 0.000000 0.000000
							}
						}
					}
				}
				JOINT LeftShoulder
				{
					OFFSET 0.000000 0.000000 0.000000
					CHANNELS 3 Zrotation Yrotation Xrotation
					JOINT LeftArm
					{
						OFFSET 0.189788 0.067783 -0.017566
						CHANNELS 3 Zrotation Yrotation Xrotation
						JOINT LeftForeArm
						{
							OFFSET 0.281260 -0.000000 -0.000000
							CHANNELS 3 Zrotation Yrotation Xrotation
							JOINT LeftHand
							{
								OFFSET 0.196626 -0.000000 -0.000000
								CHANNELS 3 Zrotation Yrotation Xrotation
								JOINT LeftFingerBase
								{
									OFFSET 0.000000 0.000000 0.000000
									CHANNELS 3 Zrotation Yrotation Xrotation
									JOINT LeftHandIndex1
									{
										OFFSET 0.040372 -0.000000 -0.000000
										CHANNELS 3 Zrotation Yrotation Xrotation
										End Site
										{
											OFFSET 0.000000 0.000000 0.000000
										}
									}
								}
								JOINT LThumb
								{
									OFFSET 0.000000 0.000000 0.000000
									CHANNELS 3 Zrotation Yrotation Xrotation
									End Site
									{
										OFFSET 0.000000 0.000000 0.000000
									}
								}
							}
						}
					}
				}
				JOINT RightShoulder
				{
					OFFSET 0.000000 0.000000 0.000000
					CHANNELS 3 Zrotation Yrotation Xrotation
					JOINT RightArm
					{
						OFFSET -0.177042 0.077557 -0.022840
						CHANNELS 3 Zrotation Yrotation Xrotation
						JOINT RightForeArm
						{
							OFFSET -0.295874 -0.000000 -0.000000
							CHANNELS 3 Zrotation Yrotation Xrotation
							JOINT RightHand
							{
								OFFSET -0.194403 -0.000000 -0.000000
								CHANNELS 3 Zrotation Yrotation Xrotation
								JOINT RightFingerBase
								{
									OFFSET 0.000000 0.000000 0.000000
									CHANNELS 3 Zrotation Yrotation Xrotation
									JOINT RightHandIndex1
									{
										OFFSET -0.035138 -0.000000 -0.000000
										CHANNELS 3 Zrotation Yrotation Xrotation
										End Site
										{
											OFFSET 0.000000 0.000000 0.000000
										}
									}
								}
								JOINT RThumb
								{
									OFFSET 0.000000 0.000000 0.000000
									CHANNELS 3 Zrotation Yrotation Xrotation
									End Site
									{
										OFFSET 0.000000 0.000000 0.000000
									}
								}
							}
						}
					}
				}
			}
		}
	}
}
MOTION
Frames: 7
Frame Time: 0.033333
0.044060 0.988401 1.718332 -0.214103 -16.361307 2.638263 -1.203185 23.674955 1.686517 -17.141447 1.390599 -11.515613 0.272579 1.885393 20.388608 24.755424 -7.635248 -6.636389 -5.548275 1.095782 -7.760307 -2.956957 -25.030333 1.907266 23.995427 0.719561 -6.568734 -3.282302 0.141326 18.211184 -29.651018 10.405446 -12.396409 5.803939 -4.326349 -8.655156 2.024542 1.009086 6.690306 -2.352096 0.768648 20.156151 -3.723829 1.490657 -41.292554 -3.740098 4.416502 -11.975074 8.740983 3.122519 21.124335 -0.542197 -1.263620 -3.215659 0.900979 35.794235 4.850592 -73.504858 -6.147922 55.130221 -2.898184 -23.462569 14.511692 2.453678 -8.338069 4.710315 -4.633399 15.309905 0.165707 0.001459 -0.009063 0.010544 0.002993 -0.010865 -0.004652 1.392613 -40.934924 -3.225797 72.211319 2.300254 63.478251 1.462127 22.775010 17.124780 -5.322263 7.106701 8.895744 5.959261 -16.103521 -0.367423 -0.028787 -0.040891 0.028841 -0.010174 -0.001183 0.009629 
0.044087 0.988393 1.718331 -0.215815 -16.369572 2.637694 -1.188002 23.675063 1.685548 -17.137947 1.416150 -11.479365 0.261634 1.904671 20.372263 24.742688 -7.617044 -6.673575 -5.538413 1.094497 -7.752270 -2.967275 -25.014095 1.928137 23.986696 0.770824 -6.578085 -3.277497 0.142337 18.195655 -29.648507 10.375745 -12.383374 5.789580 -4.317435 -8.645358 2.017897 0.996851 6.661497 -2.398626 0.753519 20.150913 -3.694325 1.533995 -41.270736 -3.739389 4.453063 -11.974546 8.774446 3.151609 21.114497 -0.533675 -1.268334 -3.222465 0.894695 35.786273 4.848035 -73.513052 -6.149748 55.121582 -2.875188 -23.430320 14.521239 2.437859 -8.370629 4.701067 -4.635380 15.305976 0.166084 0.001446 -0.009015 0.010566 0.003012 -0.010879 -0.004635 1.435000 -40.919015 -3.206646 72.176123 2.330806 63.438945 1.428041 22.757599 17.118702 -5.340763 7.082718 8.906150 5.943503 -16.105024 -0.366471 -0.028789 -0.040901 0.028883 -0.010191 -0.001210 0.009613 
0.044221 0.988758 1.718407 -0.164875 -16.403578 2.659171 -1.139279 23.718562 1.745896 -17.154952 1.572841 -11.277984 0.297819 1.867364 19.989579 24.685181 -7.676007 -7.161840 -5.472382 1.002369 -7.666759 -3.071428 -24.902141 1.962539 23.939677 1.029997 -6.640883 -3.223040 0.171510 18.131154 -29.712383 10.182592 -12.242295 5.704091 -4.279916 -8.577706 2.101785 0.872179 6.443595 -2.707922 0.580996 20.284525 -3.527139 1.733143 -41.345208 -3.697451 4.442410 -11.942846 8.820239 3.142522 21.112740 -0.520152 -1.274695 -3.227097 0.869405 35.948673 4.840323 -73.615761 -6.082946 55.186251 -2.800614 -23.009545 14.609481 2.423719 -8.513159 4.776026 -4.667893 15.330899 0.168131 0.001154 -0.008868 0.010637 0.003198 -0.010923 -0.004482 1.657939 -40.848423 -3.141133 71.978174 2.574244 63.494010 1.254721 22.541924 17.218655 -5.500027 6.864929 9.068845 5.913295 -16.141205 -0.368393 -0.028867 -0.041030 0.029188 -0.010240 -0.001592 0.009846 
0.044310 0.988867 1.718437 -0.166464 -16.402647 2.656549 -1.085178 23.741225 1.767909 -17.141341 1.649619 -11.175704 0.300554 1.894588 19.870666 24.648107 -7.655257 -7.354910 -5.441586 0.970244 -7.638740 -3.103825 -24.846110 2.011791 23.912047 1.183433 -6.679648 -3.203397 0.185340 18.086726 -29.723671 10.085310 -12.172018 5.657731 -4.252359 -8.540082 2.147379 0.818317 6.353928 -2.840022 0.510865 20.307455 -3.460043 1.829684 -41.327672 -3.681178 4.450645 -11.929819 8.851509 3.148278 21.080919 -0.513795 -1.284199 -3.249738 0.834103 35.980643 4.835031 -73.656337 -6.068940 55.201420 -2.739464 -22.842442 14.648176 2.411937 -8.570517 4.795351 -4.674751 15.340053 0.169842 0.001083 -0.008773 0.010711 0.003300 -0.010957 -0.004446 1.774032 -40.790950 -3.094690 71.884216 2.682747 63.436162 1.155274 22.443841 17.237396 -5.557357 6.772965 9.111730 5.879303 -16.156188 -0.367058 -0.028894 -0.041049 0.029352 -0.010282 -0.001733 0.009880 
0.044362 0.988893 1.718446 -0.167816 -16.404856 2.655910 -1.054225 23.750056 1.779836 -17.121675 1.689057 -11.126570 0.292915 1.925465 19.831173 24.619510 -7.622215 -7.435163 -5.424812 0.961089 -7.627735 -3.119812 -24.811474 2.038756 23.896276 1.273100 -6.701691 -3.196633 0.189993 18.060247 -29.724658 10.034008 -12.138093 5.632438 -4.235881 -8.518669 2.156323 0.785617 6.302645 -2.910366 0.472156 20.307699 -3.414828 1.886209 -41.295824 -3.667531 4.433194 -11.925174 8.865620 3.129599 21.058689 -0.514498 -1.301779 -3.263847 0.813327 35.996951 4.825347 -73.674389 -6.065539 55.192413 -2.704163 -22.781424 14.664136 2.399693 -8.607408 4.793927 -4.674204 15.339150 0.171276 0.001066 -0.008716 0.010757 0.003355 -0.010991 -0.004437 1.838704 -40.736263 -3.057906 71.832421 2.747103 63.379401 1.098912 22.395943 17.234356 -5.585524 6.729363 9.126304 5.852956 -16.161926 -0.365266 -0.028909 -0.041046 0.029438 -0.010307 -0.001795 0.009869 
0.044395 0.988897 1.718449 -0.168898 -16.408614 2.655778 -1.035584 23.753300 1.788411 -17.105002 1.710446 -11.100032 0.284452 1.947770 19.815297 24.598675 -7.596139 -7.473568 -5.414701 0.958481 -7.621956 -3.128917 -24.790804 2.052930 23.889327 1.325912 -6.713119 -3.194896 0.191567 18.043719 -29.724829 10.004586 -12.121110 5.617319 -4.225761 -8.505755 2.153635 0.766232 6.271318 -2.948811 0.450287 20.305159 -3.386271 1.918977 -41.269682 -3.658645 4.418671 -11.923771 8.874053 3.113948 21.045836 -0.515790 -1.315572 -3.271603 0.801167 36.004317 4.817692 -73.681411 -6.066760 55.178715 -2.682799 -22.758201 14.670898 2.390780 -8.630220 4.788942 -4.671978 15.336283 0.172227 0.001061 -0.008682 0.010786 0.003384 -0.011016 -0.004435 1.876511 -40.698575 -3.033879 71.802122 2.785938 63.340377 1.065954 22.371124 17.229690 -5.601067 6.708061 9.133180 5.835653 -16.164132 -0.363938 -0.028916 -0.041041 0.029483 -0.010323 -0.001824 0.009855 
0.044420 0.988894 1.718450 -0.169736 -16.413002 2.655720 -1.024072 23.754405 1.795001 -17.092792 1.722669 -11.084227 0.277676 1.962179 19.806868 24.584061 -7.578019 -7.494545 -5.408217 0.957692 -7.618229 -3.134586 -24.778664 2.060179 23.887007 1.357239 -6.718789 -3.194943 0.192157 18.033329 -29.725572 9.987196 -12.112079 5.607902 -4.219418 -8.497728 2.148219 0.754856 6.251504 -2.970041 0.437828 20.303226 -3.368820 1.937715 -41.251518 -3.653230 4.409565 -11.923409 8.879614 3.103853 21.038628 -0.516690 -1.324830 -3.275879 0.793677 36.007401 4.812604 -73.683542 -6.069400 55.167024 -2.669304 -22.747841 14.673775 2.385056 -8.643794 4.784681 -4.669833 15.333790 0.172806 0.001059 -0.008662 0.010804 0.003400 -0.011034 -0.004435 1.899278 -40.675071 -3.018946 71.783712 2.809363 63.316144 1.046049 22.356945 17.226690 -5.610089 6.697288 9.137315 5.824934 -16.164956 -0.363057 -0.028919 -0.041039 0.029507 -0.010333 -0.001840 0.009845 
